# xmcd
#
# Track frame offsets: 
#        150
#        18662
#        43412
#        60622
#        90402
#        111149
#        128367
#        155293
#        177642
#        195149
#        217002
#        236989
#        254629
#        273444
#        292479
#        307072
#        325720
#        343397
#
# Disc length: 4787 seconds
#
# Revision: 0
# Processed by: cddbd v1.5.2PL0 Copyright (c) Steve Scherf et al.
# Submitted via: ExactAudioCopy v1.3
#
DISCID=1b12b112
DTITLE=Various Artist - Akella Presents - vol.118 - Rockin' Blues  CD
DTITLE=1
DYEAR=2017
DGENRE=Blues
TTITLE0=Topper Price and The Upsetters - I'm Ready
TTITLE1=Main Street Blues - Before the Bullets Fly
TTITLE2=3 Mile Stone - Walk On
TTITLE3=The Josh Pilot Band - Drowning In Misery
TTITLE4=Joe Pitts - Nickle and a Dime
TTITLE5=Ruthless Blues - Too Many Drivers
TTITLE6=Higway 414 - Sorry Sunday
TTITLE7=Sonny Moorman - Crossroads Motel
TTITLE8=Full Trunk - Baby Put The Gun Down
TTITLE9=The BluesBones - The Witchdoctor
TTITLE10=Pete Special - Are We Rockin or What
TTITLE11=Doug Gray - Little Bit of Love
TTITLE12=John Verity - Hoochie Coochie Man
TTITLE13=Mick Ralphs - Talk To Your Daughter
TTITLE14=Rev. Jimmie Bratcher - 57
TTITLE15=The Maynard Brothers - Nasty Packages
TTITLE16=Randall Bramblett - Pride In Place
TTITLE17=Vintage Trouble - Blues Hand Me Down
EXTD=
EXTT0=
EXTT1=
EXTT2=
EXTT3=
EXTT4=
EXTT5=
EXTT6=
EXTT7=
EXTT8=
EXTT9=
EXTT10=
EXTT11=
EXTT12=
EXTT13=
EXTT14=
EXTT15=
EXTT16=
EXTT17=
PLAYORDER=
